<svg xmlns="http://www.w3.org/2000/svg" viewBox="0 0 359.99 89.1"><title>la-sierra-logo-gold-white</title><circle cx="44.53" cy="3.43" r="3.42" style="fill:#f4b824"/><path d="M123.08,82.41S113.2,79,113.24,72h0c0-7,9.83-10.43,9.83-10.43a2.58,2.58,0,0,0,.71-.36A.46.46,0,0,0,124,61a.58.58,0,0,0,0-.4.55.55,0,0,0-.4-.29,1.76,1.76,0,0,0-.43-.05c-8,.24-9.46,6.66-19.72,6.92-.48,0-1,0-1.4,0l-.49,0c-.5,0-1-.1-1.45-.18l-.38-.08c-.43-.09-.85-.19-1.25-.32l-.6-.21a11.21,11.21,0,0,1-1.17-.45L96,65.59l.22-.61c.14-.39.32-.77.5-1.15.09-.19.18-.39.28-.58.2-.38.42-.74.66-1.11.07-.11.14-.22.22-.32a14,14,0,0,1,.89-1.16l.32-.37c.3-.33.63-.67,1-1,7.42-7.08,13-3.62,18.83-9.07a1.83,1.83,0,0,0,.27-.34.6.6,0,0,0,.08-.49.55.55,0,0,0-.25-.31.47.47,0,0,0-.27,0,3,3,0,0,0-.76.25s-9.37,4.59-14.32-.41h0c-5-4.94-.43-14.32-.43-14.32a3,3,0,0,0,.25-.76.45.45,0,0,0,0-.27.55.55,0,0,0-.31-.25.58.58,0,0,0-.49.09,1.52,1.52,0,0,0-.34.27c-5.46,5.8-2,11.4-9.05,18.84-.34.34-.68.67-1,1l-.36.32c-.39.33-.77.63-1.16.9l-.33.22c-.37.24-.74.47-1.11.67l-.57.28c-.38.18-.76.36-1.15.51l-.6.21c-.09-.18-.18-.38-.27-.57-.18-.38-.32-.77-.46-1.17-.07-.2-.14-.4-.21-.61-.12-.41-.23-.82-.32-1.26,0-.12-.05-.25-.07-.38a14.52,14.52,0,0,1-.19-1.45c0-.16,0-.33,0-.49,0-.45,0-.91,0-1.4.24-10.25,6.66-11.77,6.9-19.73a1.74,1.74,0,0,0-.05-.43.57.57,0,0,0-.29-.41.61.61,0,0,0-.4-.05.49.49,0,0,0-.21.17,2.82,2.82,0,0,0-.36.71s-3.38,9.88-10.42,9.83h0c-7,.05-10.43-9.82-10.43-9.82a3.08,3.08,0,0,0-.36-.71.5.5,0,0,0-.21-.17.61.61,0,0,0-.4.05.55.55,0,0,0-.29.41,1.61,1.61,0,0,0-.05.43c.24,8,6.67,9.47,6.91,19.72,0,.49,0,.95,0,1.4,0,.16,0,.33,0,.49,0,.5-.1,1-.18,1.45,0,.13-.05.25-.08.38a12.83,12.83,0,0,1-.31,1.26c-.06.21-.14.41-.21.6-.14.4-.28.79-.46,1.18l-.27.57-.6-.21c-.39-.14-.78-.32-1.15-.5l-.57-.28c-.37-.2-.75-.42-1.11-.66l-.32-.21c-.39-.28-.77-.58-1.16-.9l-.37-.33q-.51-.45-1-1c-7.09-7.42-3.61-13-9.07-18.83a1.77,1.77,0,0,0-.34-.26.58.58,0,0,0-.49-.09.56.56,0,0,0-.32.25.52.52,0,0,0,0,.27,3.16,3.16,0,0,0,.25.76s4.59,9.37-.41,14.32h0c-4.94,5-14.32.42-14.32.42a3.17,3.17,0,0,0-.76-.25.45.45,0,0,0-.52.35.6.6,0,0,0,.09.49,1.76,1.76,0,0,0,.27.34c5.8,5.46,11.41,2,18.83,9.06.35.34.67.67,1,1l.32.37c.33.38.63.77.9,1.16l.22.33c.24.36.46.74.66,1.11l.28.58c.18.38.36.76.5,1.15.08.2.15.4.21.6l-.57.28c-.38.18-.78.32-1.17.46l-.6.21c-.41.13-.83.23-1.26.32l-.38.07a14.6,14.6,0,0,1-1.45.19l-.49,0c-.45,0-.92,0-1.4,0C47.5,66.94,46,60.51,38,60.28a1.75,1.75,0,0,0-.43.05.57.57,0,0,0-.41.29.6.6,0,0,0,0,.4.51.51,0,0,0,.17.21,2.87,2.87,0,0,0,.71.35S47.91,65,47.87,72h0C47.92,79,38,82.44,38,82.44a3.11,3.11,0,0,0-.72.36.56.56,0,0,0-.16.21.58.58,0,0,0,0,.4.58.58,0,0,0,.41.29,1.64,1.64,0,0,0,.43.05c8-.24,9.47-6.67,19.73-6.92.48,0,.95,0,1.4,0,.17,0,.33,0,.49,0a13.58,13.58,0,0,1,1.45.18l.39.08c.43.09.85.19,1.25.32l.6.21c.4.14.79.28,1.17.46l.57.28-.21.6a12.32,12.32,0,0,1-.51,1.15c-.09.19-.18.38-.27.58a12.78,12.78,0,0,1-.67,1.11l-.22.33c-.27.39-.57.77-.9,1.15L62,83.7c-.3.33-.62.67-1,1-7.42,7.08-13,3.61-18.83,9.07a2,2,0,0,0-.26.34.58.58,0,0,0-.09.49.45.45,0,0,0,.52.35,3.22,3.22,0,0,0,.76-.25s9.38-4.6,14.32.41h0c5,4.93.42,14.32.42,14.32a3.15,3.15,0,0,0-.25.76.55.55,0,0,0,0,.27.59.59,0,0,0,.32.25.57.57,0,0,0,.49-.08,1.89,1.89,0,0,0,.34-.27c5.46-5.8,2-11.41,9.06-18.84.34-.34.68-.66,1-1l.37-.32a14.37,14.37,0,0,1,1.16-.9l.32-.22c.37-.24.74-.46,1.11-.66.19-.1.38-.19.57-.28.38-.18.76-.36,1.15-.51l.6-.21c.09.19.18.38.27.58.18.38.32.77.46,1.16.07.2.14.4.21.61.12.41.23.82.31,1.25,0,.13.05.25.08.38.08.47.14.95.19,1.45,0,.16,0,.32,0,.49,0,.46,0,.91,0,1.4-.23,10.26-6.66,11.77-6.89,19.73a1.63,1.63,0,0,0,.05.43.57.57,0,0,0,.29.41.61.61,0,0,0,.4,0,.5.5,0,0,0,.21-.17,2.9,2.9,0,0,0,.36-.71s3.38-9.87,10.42-9.83h0c7,0,10.43,9.82,10.43,9.82a2.82,2.82,0,0,0,.36.71.48.48,0,0,0,.21.17.58.58,0,0,0,.4,0,.56.56,0,0,0,.29-.4,1.85,1.85,0,0,0,.05-.43c-.24-8-6.67-9.47-6.91-19.73,0-.49,0-.95,0-1.4,0-.17,0-.33,0-.49,0-.5.1-1,.18-1.45,0-.13,0-.26.08-.38.08-.43.19-.85.31-1.26.07-.2.14-.4.21-.6.14-.4.28-.79.46-1.17.09-.2.18-.39.28-.58l.6.21c.39.15.77.33,1.15.51.19.09.39.18.58.28.38.2.74.42,1.11.66l.32.22q.58.41,1.16.9l.37.32c.33.3.67.62,1,1,7.09,7.42,3.62,13,9.08,18.83a1.85,1.85,0,0,0,.34.27.58.58,0,0,0,.49.08.57.57,0,0,0,.31-.25.46.46,0,0,0,0-.27,2.93,2.93,0,0,0-.25-.76s-4.59-9.37.41-14.32h0c4.94-5,14.32-.43,14.32-.43a2.9,2.9,0,0,0,.76.25.46.46,0,0,0,.27,0,.57.57,0,0,0,.25-.31.59.59,0,0,0-.08-.5,1.93,1.93,0,0,0-.26-.34c-5.8-5.46-11.41-2-18.84-9.06-.35-.34-.67-.67-1-1l-.32-.37c-.33-.39-.62-.77-.9-1.16l-.22-.32c-.24-.37-.46-.74-.66-1.11-.1-.19-.19-.38-.28-.58-.18-.38-.36-.76-.51-1.15L96,78.4l.58-.28c.38-.17.77-.31,1.17-.46l.6-.21c.41-.12.83-.23,1.25-.32l.38-.07c.47-.08,1-.15,1.46-.18l.49,0q.67,0,1.4,0c10.26.23,11.77,6.66,19.73,6.89a1.68,1.68,0,0,0,.43-.05.58.58,0,0,0,.41-.29.59.59,0,0,0,0-.4.5.5,0,0,0-.16-.21A3,3,0,0,0,123.08,82.41ZM99,90.39,83,78,80.56,98l-2.5-20L62.17,90.4,74.54,74.49,54.54,72l20-2.5L62.15,53.61,78.06,66l2.48-20L83,66l15.9-12.38L86.57,69.5l20,2.49-20,2.5Z" transform="translate(-36.01 -27.45)" style="fill:#f4b824"/><path d="M80.58,109.71a3.42,3.42,0,1,1-3.43,3.42A3.41,3.41,0,0,1,80.58,109.71Z" transform="translate(-36.01 -27.45)" style="fill:#f4b824"/><path d="M53.88,45.35a3.42,3.42,0,1,1,0-4.84A3.42,3.42,0,0,1,53.88,45.35Z" transform="translate(-36.01 -27.45)" style="fill:#f4b824"/><path d="M112.06,98.65a3.42,3.42,0,1,1-4.84,0A3.43,3.43,0,0,1,112.06,98.65Z" transform="translate(-36.01 -27.45)" style="fill:#f4b824"/><path d="M42.85,72a3.42,3.42,0,1,1-3.42-3.42A3.41,3.41,0,0,1,42.85,72Z" transform="translate(-36.01 -27.45)" style="fill:#f4b824"/><path d="M121.68,68.56A3.42,3.42,0,1,1,118.26,72,3.43,3.43,0,0,1,121.68,68.56Z" transform="translate(-36.01 -27.45)" style="fill:#f4b824"/><path d="M53.91,98.67a3.42,3.42,0,1,1-4.84,0A3.41,3.41,0,0,1,53.91,98.67Z" transform="translate(-36.01 -27.45)" style="fill:#f4b824"/><circle cx="109.63" cy="42.91" r="3.42" transform="translate(-34.21 62.69) rotate(-45.03)" style="fill:#f4b824"/><path d="M178.74,97.38h2.07l6.83,8.45V97.38h2.19V109.6H188l-7-8.7v8.7h-2.2Zm29.79,12.21h2.24V97.37h-2.24Zm24,.08h2l5.28-12.31h-2.42l-3.81,9.4-3.85-9.4h-2.47Zm22.92-.1H265v-1.92h-7.29v-3.28h6.38v-1.92H257.7V99.26h7.2V97.34h-9.44Zm79.66,0h2.24V97.31h-2.23Zm22.6,0H360V99.29h4v-2H353.68v2h4Zm25.5,0h2.25v-4.87l5-7.36H388l-3.61,5.42-3.56-5.42h-2.63l5.06,7.4ZM157.75,41.72c0-3.79.19-3.92,6.49-4.34v-2H144.94v2c6,.41,6.09.54,6.1,4.33V76c0,3.78-.14,3.93-6.09,4.33v2h35.14l.8-12.12h-2c-1.35,8.86-5.08,9.75-12.18,9.75-3.39,0-5.83-.14-7.25-.68s-1.69-1.76-1.69-5.08ZM202.59,72.6c0,5.47-4.2,6.91-6.84,6.91-4.2,0-6.24-3-6.24-7,0-3.19,1.49-4.81,5.29-6.22A59.21,59.21,0,0,0,202.58,63Zm6.09-15.31c0-3.93-.89-9-11.11-9-7.66,0-13.69,4-13.69,7.72,0,2.18,2.51,3.18,3.8,3.18s1.82-.75,2.16-1.89c1.49-5,4.27-6.63,7-6.64s5.76,1.34,5.76,6.77v2.84c-1.69,1.77-8.26,3.46-13.61,5.16-4.88,1.48-6.3,4.87-6.3,8,0,5.08,3.39,9.62,9.76,9.62,4.21-.14,7.92-2.65,10.09-4.07.95,2.51,2,4.07,4.41,4.07a18.64,18.64,0,0,0,8-2l-.4-1.62a8.9,8.9,0,0,1-3.46.07c-1.21-.27-2.37-1.57-2.37-5.83Zm22.15,21.93c3,2.77,8.6,4.06,13.34,4.06,12,0,16.72-6.85,16.72-13.75,0-8-5.42-11.79-13.35-14.69L245.37,54c-4.54-1.68-8.33-4.6-8.33-8.66,0-4.94,3-8.6,8.66-8.6s9.08,3.32,10.17,10.16H258V37.35c-2.31-1.82-6.91-3-11.51-3-8.27,0-15.58,4.14-15.58,13.08,0,7.1,5.7,10.83,12.81,13.33l1.21.47c3,1.15,9.42,4.26,9.42,10.29,0,5.82-3.72,9.35-9.75,9.36-6.37,0-10.57-4.94-12.27-12.53h-2.17Zm44.06-40.13a4,4,0,0,0-4.13-4.2,4,4,0,0,0-4.13,4.2,4.13,4.13,0,0,0,8.26,0m-12,10.86v1.7l2.58.33c1.76.28,2.16.61,2.17,3.05V76.36c0,3.45-.2,3.59-5.08,3.92v2h16.53v-2c-4.82-.33-5.08-.46-5.08-3.92V48.65l-.48-.4Zm26,11.91c0-2.78,1-11.24,8.06-11.24,6.3,0,7,6.43,7,9.06,0,1.29-.4,2.17-2.3,2.18Zm19.44,2.56c1.43,0,2.72-.34,2.72-2.56,0-4-1.3-13.61-13.7-13.61-10.56,0-15.57,7.52-15.56,17.68,0,10.7,4.61,17.27,15.65,17.13,7.51-.07,11.37-4.19,13.2-9.55l-2-1.08c-1.9,3.93-4.47,7.17-9.82,7.18-8.39,0-10.09-8.13-10-15.17Zm16.11-16.18-10.3,1.7v1.7l2.59.33c1.76.28,2.16.61,2.16,3.05V76.33c0,3.46-.34,3.59-5.08,3.93v2h17.87v-2c-6-.33-6.44-.46-6.44-3.92V60.48c0-5.21,2.29-7,3.86-7,1.08,0,2.24.41,4.2,1.5a2.81,2.81,0,0,0,1.35.33c1.63,0,3.11-1.69,3.11-3.79a3.25,3.25,0,0,0-3.58-3.31c-2.44,0-4.47,1.49-8.94,5.42Zm24.71,0-10.29,1.7v1.7l2.57.33c1.76.28,2.17.61,2.17,3V76.33c0,3.45-.33,3.59-5.09,3.92v2h17.88v-2c-6-.33-6.44-.46-6.44-3.92V60.47c0-5.21,2.3-7,3.85-7,1.09,0,2.25.4,4.21,1.49a2.81,2.81,0,0,0,1.35.34c1.62,0,3.11-1.69,3.11-3.79a3.26,3.26,0,0,0-3.59-3.32c-2.45,0-4.47,1.49-8.94,5.42Zm34.48,24.3c0,5.48-4.2,6.92-6.84,6.92-4.2,0-6.23-3-6.24-7,0-3.19,1.5-4.81,5.29-6.23A58.32,58.32,0,0,0,383.66,63Zm6.09-15.31c0-3.93-.88-9-11.1-9-7.66,0-13.69,4-13.69,7.72,0,2.18,2.51,3.18,3.79,3.18s1.83-.74,2.17-1.89c1.49-5,4.26-6.64,7-6.64s5.75,1.34,5.75,6.77v2.84C382,62,375.39,63.65,370,65.35c-4.88,1.48-6.29,4.87-6.29,8.05,0,5.08,3.38,9.62,9.75,9.62,4.2-.14,7.91-2.66,10.09-4.07,1,2.51,2,4.07,4.41,4.07a18.55,18.55,0,0,0,8-2l-.42-1.62a8.67,8.67,0,0,1-3.45.07c-1.22-.28-2.37-1.57-2.37-5.83Zm-238.8,47.21c0,3.55,2.11,5.38,5.42,5.38s5.47-1.83,5.47-5.48V97.38H159.6v7c0,2.27-1.21,3.4-3.2,3.4s-3.23-1.21-3.23-3.48v-7h-2.24v7m133.48-1V99.3h3.26c1.65,0,2.64.71,2.64,2v0c0,1.25-1,2-2.62,2.05Zm-2.23,6.17h2.23V105.3h2.81l3.13,4.26H293l-3.44-4.62a3.71,3.71,0,0,0,3-3.71v0a3.64,3.64,0,0,0-1.06-2.65,5.23,5.23,0,0,0-3.67-1.22h-5.68Zm26.12-1.79a8,8,0,0,0,5.31,1.95c2.67,0,4.56-1.36,4.55-3.65v0c0-2-1.41-3-4.1-3.58-2.44-.55-3-1-3-1.92v0c0-.79.77-1.45,2.07-1.45a5.91,5.91,0,0,1,3.46,1.26l1.21-1.62a7.3,7.3,0,0,0-4.63-1.54c-2.53,0-4.35,1.45-4.35,3.54v0c0,2.25,1.53,3,4.25,3.65,2.36.52,2.87,1,2.87,1.87v0c0,.93-.87,1.54-2.25,1.54a6,6,0,0,1-4-1.59l-1.34,1.54" transform="translate(-36.01 -27.45)" style="fill:#fff"/></svg>